<?xml version="1.0" standalone="no"?>
<!DOCTYPE svg PUBLIC "-//W3C//DTD SVG 20010904//EN"
 "http://www.w3.org/TR/2001/REC-SVG-20010904/DTD/svg10.dtd">
<svg version="1.0" xmlns="http://www.w3.org/2000/svg"
 width="180.000000pt" height="180.000000pt" viewBox="0 0 180.000000 180.000000"
 preserveAspectRatio="xMidYMid meet">
<metadata>
Created by potrace 1.13, written by Peter Selinger 2001-2015
</metadata>
<g transform="translate(0.000000,180.000000) scale(0.100000,-0.100000)"
fill="#CA1B21" stroke="none">
<path d="M1107 1713 c8 -32 -29 -104 -92 -179 -32 -37 -71 -96 -87 -131 -27
-57 -30 -72 -27 -141 4 -83 33 -154 88 -220 l29 -33 -2 73 c0 40 2 85 7 101 4
15 39 62 77 104 70 76 99 134 86 168 -5 15 -9 14 -27 -9 -32 -41 -53 -33 -24
9 56 84 54 176 -5 246 -23 27 -28 29 -23 12z"/>
<path d="M816 1350 c-79 -82 -99 -132 -95 -230 4 -67 8 -84 38 -131 79 -125
101 -164 101 -178 -1 -9 -8 -2 -17 14 -41 78 -114 124 -198 125 l-50 0 47 -41
c78 -67 83 -123 22 -257 -43 -95 -49 -128 -31 -180 17 -50 14 -54 -9 -10 -11
22 -15 48 -12 85 4 51 4 52 -13 37 -33 -30 -52 -98 -47 -167 10 -119 96 -240
206 -290 64 -28 199 -35 274 -13 143 41 215 152 225 347 5 81 2 107 -16 160
-30 90 -90 178 -203 295 -190 199 -231 308 -168 451 10 24 15 43 11 43 -4 0
-34 -27 -65 -60z m200 -645 c27 -9 62 -26 77 -39 l28 -23 -36 -28 -37 -28 -38
22 c-73 41 -166 16 -158 -42 3 -19 17 -25 112 -49 60 -14 120 -35 135 -46 55
-40 64 -130 20 -186 -48 -61 -179 -93 -273 -66 -41 11 -116 62 -116 79 0 4 14
17 30 30 l31 22 51 -25 c56 -28 97 -32 147 -15 32 11 49 44 37 74 -6 18 -47
35 -81 35 -94 0 -187 51 -200 110 -16 72 36 150 116 175 58 18 95 18 155 0z"/>
</g>
</svg>
